<?xml version="1.0" encoding="utf-8"?>
<!-- Generator: Adobe Illustrator 19.2.1, SVG Export Plug-In . SVG Version: 6.00 Build 0)  -->
<svg version="1.1" id="Capa_1" xmlns="http://www.w3.org/2000/svg" xmlns:xlink="http://www.w3.org/1999/xlink" x="0px" y="0px"
	 width="30.6px" height="26px" viewBox="0 0 30.6 26" style="enable-background:new 0 0 30.6 26;" xml:space="preserve">
<g>
	<path d="M26.3,12.5l4.1-4.1c0.2-0.2,0.2-0.6,0-0.8c-0.2-0.2-0.6-0.2-0.8,0l-4.1,4.1l-4.1-4.1c-0.2-0.2-0.6-0.2-0.8,0
		c-0.2,0.2-0.2,0.6,0,0.8l4.1,4.1l-4.1,4.1c-0.2,0.2-0.2,0.6,0,0.8c0.1,0.1,0.3,0.2,0.4,0.2s0.3-0.1,0.4-0.2l4.1-4.1l4.1,4.1
		c0.1,0.1,0.3,0.2,0.4,0.2s0.3-0.1,0.4-0.2c0.2-0.2,0.2-0.6,0-0.8L26.3,12.5z"/>
	<path d="M16.1,0.2c-0.6-0.3-1.2-0.3-1.8,0l-0.1,0.1L6.6,6.8h-6C0.2,6.8,0,7,0,7.4v10.8c0,0.2,0.1,0.3,0.2,0.4
		c0.1,0.1,0.2,0.2,0.4,0.2h6l7.6,7c0,0,0.1,0.1,0.1,0.1c0.3,0.2,0.6,0.2,0.9,0.2c0.3,0,0.6-0.1,0.8-0.2c0.6-0.3,0.9-0.9,0.9-1.6V1.8
		C17,1.1,16.6,0.6,16.1,0.2z M6.2,17.6H1.1V7.9h5.1v7.4v0.6V17.6z M15.9,24.2c0,0.2-0.1,0.5-0.3,0.6c-0.1,0.1-0.3,0.2-0.6,0
		l-7.6-6.9v-2v-0.6V7.7l7.6-6.5c0.3-0.1,0.5-0.1,0.6,0c0.2,0.1,0.3,0.3,0.3,0.6V24.2z"/>
</g>
</svg>
