<?xml version="1.0" encoding="utf-8"?>
<!-- Generator: Adobe Illustrator 19.2.1, SVG Export Plug-In . SVG Version: 6.00 Build 0)  -->
<svg version="1.1" id="Capa_1" xmlns="http://www.w3.org/2000/svg" xmlns:xlink="http://www.w3.org/1999/xlink" x="0px" y="0px"
	 width="14.3px" height="14px" viewBox="0 0 14.3 14" style="enable-background:new 0 0 14.3 14;" xml:space="preserve">
<path d="M12.2,1.7C10.8,0.6,9.1,0,7.2,0c-1.9,0-3.7,0.6-5,1.7C0.8,2.8,0,4.3,0,5.9S0.8,9,2.1,10.1c1.3,1.1,3.1,1.7,5,1.7
	c0.2,0,0.4,0,0.6,0l1.2,2C9.1,13.9,9.2,14,9.4,14c0,0,0,0,0,0c0.2,0,0.3-0.1,0.4-0.2l2.6-3.8c1.3-1.1,2-2.5,2-4.1
	C14.3,4.3,13.6,2.8,12.2,1.7z M11.7,9.3l-2.3,3.3l-1-1.6c-0.1-0.1-0.2-0.2-0.4-0.2c0,0,0,0-0.1,0c-0.3,0-0.5,0-0.8,0
	C3.7,10.8,1,8.6,1,5.9C1,3.2,3.7,1,7.2,1s6.2,2.2,6.2,4.9C13.4,7.1,12.8,8.4,11.7,9.3z"/>
</svg>
