<?xml version="1.0" encoding="utf-8"?>
<!-- Generator: Adobe Illustrator 19.2.1, SVG Export Plug-In . SVG Version: 6.00 Build 0)  -->
<svg version="1.1" id="Layer_1" xmlns="http://www.w3.org/2000/svg" xmlns:xlink="http://www.w3.org/1999/xlink" x="0px" y="0px"
	 width="23.3px" height="14px" viewBox="0 0 23.3 14" style="enable-background:new 0 0 23.3 14;" xml:space="preserve">
<g>
	<path d="M23.1,6.3C22.9,6.1,18.6,0,11.7,0S0.4,6.1,0.2,6.3c-0.3,0.4-0.3,0.9,0,1.3C0.4,7.9,4.7,14,11.7,14s11.3-6.1,11.5-6.3
		C23.4,7.3,23.4,6.7,23.1,6.3z M11.7,12.8C5.2,12.8,1.2,7,1.2,7s4.1-5.8,10.5-5.8S22.2,7,22.2,7S18.1,12.8,11.7,12.8z"/>
	<path d="M11.7,3.5C9.8,3.5,8.2,5.1,8.2,7s1.5,3.5,3.5,3.5s3.5-1.5,3.5-3.5S13.6,3.5,11.7,3.5z M11.7,9.6c-1.4,0-2.6-1.2-2.6-2.6
		c0-1.4,1.2-2.6,2.6-2.6c1.4,0,2.6,1.2,2.6,2.6C14.3,8.4,13.1,9.6,11.7,9.6z"/>
</g>
</svg>
