<?xml version="1.0" encoding="utf-8"?>
<!-- Generator: Adobe Illustrator 19.2.1, SVG Export Plug-In . SVG Version: 6.00 Build 0)  -->
<svg version="1.1" xmlns="http://www.w3.org/2000/svg" xmlns:xlink="http://www.w3.org/1999/xlink" x="0px" y="0px" width="113.1px"
	 height="33.5px" viewBox="0 0 113.1 33.5" style="enable-background:new 0 0 113.1 33.5;" xml:space="preserve">
<style type="text/css">
	.st0{fill-rule:evenodd;clip-rule:evenodd;fill:#95A5A6;}
	.st1{fill:#95A5A6;}
	.st2{fill:#D8DDE7;}
</style>
<g id="Layer_1">
	<g>
		<path class="st0" d="M40.9,18.4h-5.3v1.6h3.8c-0.2,2.2-2,3.1-3.8,3.1c-2.2,0-4.1-1.7-4.1-4.2c0-2.4,1.8-4.2,4.2-4.2
			c1.8,0,2.8,1.1,2.8,1.1l1.1-1.1c0,0-1.4-1.6-4-1.6c-3.3,0-5.8,2.8-5.8,5.8c0,2.9,2.4,5.8,5.9,5.8c3.1,0,5.4-2.1,5.4-5.2
			C41,18.8,40.9,18.4,40.9,18.4L40.9,18.4z"/>
		<path class="st0" d="M45.4,18.7c1.1,0,2.1,0.9,2.1,2.3c0,1.4-1,2.3-2.1,2.3c-1.2,0-2.1-0.9-2.1-2.3C43.3,19.7,44.2,18.7,45.4,18.7
			L45.4,18.7L45.4,18.7z M45.4,17.2c-2.2,0-3.7,1.7-3.7,3.7c0,2,1.5,3.7,3.8,3.7c2,0,3.7-1.6,3.7-3.7C49.1,18.5,47.2,17.2,45.4,17.2
			L45.4,17.2z"/>
		<path class="st0" d="M53.6,18.7c1.1,0,2.1,0.9,2.1,2.3c0,1.4-1,2.3-2.1,2.3c-1.2,0-2.1-0.9-2.1-2.3C51.5,19.7,52.4,18.7,53.6,18.7
			L53.6,18.7L53.6,18.7z M53.6,17.2c-2.2,0-3.7,1.7-3.7,3.7c0,2,1.5,3.7,3.8,3.7c2,0,3.7-1.6,3.7-3.7C57.3,18.5,55.4,17.2,53.6,17.2
			L53.6,17.2z"/>
		<path class="st0" d="M61.8,18.7c1,0,2,0.8,2,2.3c0,1.4-1,2.2-2,2.2c-1.1,0-2.1-0.9-2.1-2.2C59.7,19.5,60.7,18.7,61.8,18.7
			L61.8,18.7L61.8,18.7z M61.6,17.2c-2,0-3.6,1.7-3.6,3.7c0,2.2,1.8,3.7,3.5,3.7c1.1,0,1.6-0.4,2-0.9v0.7c0,1.3-0.8,2-2,2
			c-1.1,0-1.7-0.8-1.9-1.3l-1.4,0.6c0.5,1.1,1.5,2.2,3.3,2.2c2,0,3.5-1.2,3.5-3.9v-6.7h-1.6v0.6C63.1,17.6,62.5,17.2,61.6,17.2
			L61.6,17.2z"/>
		<path class="st0" d="M72.5,18.7c0.7,0,1.2,0.4,1.4,0.8l-3.3,1.4C70.4,19.8,71.4,18.7,72.5,18.7L72.5,18.7L72.5,18.7z M72.4,17.2
			c-1.9,0-3.5,1.5-3.5,3.7c0,2.3,1.8,3.7,3.6,3.7c1.6,0,2.5-0.9,3.1-1.6l-1.3-0.9c-0.3,0.5-0.9,1-1.8,1c-1,0-1.5-0.6-1.8-1.1l5-2.1
			l-0.3-0.6C75,18.2,73.9,17.2,72.4,17.2L72.4,17.2z"/>
		<rect x="66.4" y="13.5" class="st0" width="1.6" height="10.9"/>
		<rect x="88.3" y="13.5" class="st0" width="1.6" height="10.9"/>
		<rect x="79.7" y="13.5" class="st0" width="1.6" height="10.9"/>
		<path class="st0" d="M79.7,13.5h4c1.9,0,3.5,1.6,3.5,3.5l0,0c0,1.9-1.6,3.5-3.5,3.5h-4V13.5L79.7,13.5z M81.3,15.1v3.7h2.3
			c1,0,1.9-0.8,1.9-1.9c0-1-0.8-1.9-1.9-1.9H81.3z"/>
		<polygon class="st0" points="102,28 106.8,17.2 105,17.2 100.3,28 		"/>
		<polygon class="st0" points="102.6,25.5 98.9,17.2 100.7,17.2 103.2,23 102.6,23 		"/>
		<path class="st0" d="M96.7,24.4h1.6v-3.9c0.3-4.1-4.9-5-6.8-2.1l1.3,0.9c1-1.7,3.7-1.3,3.8,0.5c-0.8-0.2-1.7-0.4-2.5-0.3
			c-1.3,0.1-2.3,0.9-2.5,2.2c-0.1,0.7,0.1,1.6,0.6,2.1c0.8,0.8,2,0.9,3.1,0.7c0.6-0.2,1-0.5,1.4-1V24.4L96.7,24.4z M96.7,21.3
			c-0.2,0.9-0.9,1.6-1.8,1.8c-1.9,0.5-2.4-2.6,0.4-2.1C95.8,21,96.2,21.1,96.7,21.3z"/>
	</g>
	<g>
		<path class="st1" d="M33.8,10.1l-0.6-1.5h-1.8l-0.6,1.5h-0.8l1.9-5h0.7l1.9,5H33.8z M33,8l-0.6-1.9h0L31.7,8H33z"/>
		<path class="st1" d="M38.3,10.1l-2.5-3.9h0v3.9h-0.7v-5h0.8l2.4,3.8h0V5.1H39v5H38.3z"/>
		<path class="st1" d="M40,5.1h1.6c0.3,0,0.5,0,0.7,0.1c0.2,0,0.4,0.1,0.6,0.2c0.2,0.1,0.3,0.2,0.4,0.3c0.1,0.1,0.2,0.2,0.3,0.4
			c0.2,0.3,0.3,0.5,0.4,0.8c0.1,0.3,0.1,0.5,0.1,0.8c0,0.2,0,0.3,0,0.5c0,0.2-0.1,0.3-0.1,0.5c-0.1,0.2-0.1,0.3-0.2,0.4
			c-0.1,0.1-0.2,0.2-0.3,0.3c-0.3,0.3-0.6,0.5-0.9,0.6c-0.3,0.1-0.7,0.1-1,0.1H40V5.1z M40.7,9.4h0.9c0.2,0,0.4,0,0.7-0.1
			c0.2-0.1,0.4-0.2,0.6-0.3c0.2-0.1,0.3-0.3,0.4-0.6c0.1-0.2,0.2-0.5,0.2-0.9c0-0.2,0-0.4-0.1-0.6c-0.1-0.2-0.2-0.4-0.3-0.6
			c-0.1-0.2-0.3-0.3-0.6-0.5c-0.2-0.1-0.5-0.2-0.9-0.2h-0.9V9.4z"/>
		<path class="st1" d="M47.2,10.1l-1.7-2.3h0v2.3h-0.7v-5h1.5c0.4,0,0.6,0,0.8,0.1c0.2,0.1,0.4,0.2,0.5,0.3c0.2,0.2,0.3,0.3,0.3,0.5
			c0.1,0.2,0.1,0.4,0.1,0.6c0,0.3-0.1,0.6-0.2,0.8c-0.1,0.2-0.3,0.4-0.4,0.5c-0.2,0.1-0.3,0.2-0.5,0.2c-0.2,0-0.3,0.1-0.4,0.1
			l1.4,1.9H47.2z M45.6,7.7h0.5c0,0,0.1,0,0.2,0c0.1,0,0.2,0,0.3,0c0.1,0,0.2,0,0.3-0.1c0.1,0,0.2-0.1,0.3-0.2
			c0.1-0.1,0.2-0.2,0.2-0.3c0.1-0.1,0.1-0.2,0.1-0.4c0-0.1,0-0.2-0.1-0.3c0-0.1-0.1-0.2-0.2-0.3C47.1,6,47,5.9,46.9,5.9
			c-0.1-0.1-0.3-0.1-0.5-0.1h-0.8V7.7z"/>
		<path class="st1" d="M53.8,7.6c0,0.3-0.1,0.7-0.2,1c-0.1,0.3-0.3,0.6-0.5,0.8c-0.2,0.2-0.5,0.4-0.8,0.6c-0.3,0.1-0.7,0.2-1,0.2
			c-0.4,0-0.7-0.1-1-0.2c-0.3-0.1-0.6-0.3-0.8-0.6c-0.2-0.2-0.4-0.5-0.5-0.8c-0.1-0.3-0.2-0.6-0.2-1c0-0.3,0.1-0.7,0.2-1
			c0.1-0.3,0.3-0.6,0.5-0.8c0.2-0.2,0.5-0.4,0.8-0.6C50.4,5.1,50.8,5,51.2,5c0.4,0,0.7,0.1,1,0.2c0.3,0.1,0.6,0.3,0.8,0.6
			c0.2,0.2,0.4,0.5,0.5,0.8C53.7,6.9,53.8,7.3,53.8,7.6z M53.1,7.6c0-0.2,0-0.4-0.1-0.7c-0.1-0.2-0.2-0.4-0.4-0.6
			C52.4,6.1,52.2,6,52,5.9c-0.2-0.1-0.5-0.2-0.8-0.2c-0.3,0-0.6,0.1-0.8,0.2c-0.2,0.1-0.4,0.3-0.6,0.5c-0.2,0.2-0.3,0.4-0.3,0.6
			c-0.1,0.2-0.1,0.4-0.1,0.6c0,0.2,0,0.4,0.1,0.6c0.1,0.2,0.2,0.4,0.3,0.6c0.2,0.2,0.3,0.3,0.6,0.5c0.2,0.1,0.5,0.2,0.8,0.2
			c0.3,0,0.6-0.1,0.8-0.2c0.2-0.1,0.4-0.3,0.6-0.5c0.2-0.2,0.3-0.4,0.3-0.6C53,8,53.1,7.8,53.1,7.6z"/>
		<path class="st1" d="M54.5,10.1v-5h0.7v5H54.5z"/>
		<path class="st1" d="M56.1,5.1h1.6c0.3,0,0.5,0,0.7,0.1c0.2,0,0.4,0.1,0.6,0.2c0.2,0.1,0.3,0.2,0.4,0.3c0.1,0.1,0.2,0.2,0.3,0.4
			c0.2,0.3,0.3,0.5,0.4,0.8c0.1,0.3,0.1,0.5,0.1,0.8c0,0.2,0,0.3,0,0.5c0,0.2-0.1,0.3-0.1,0.5c-0.1,0.2-0.1,0.3-0.2,0.4
			c-0.1,0.1-0.2,0.2-0.3,0.3c-0.3,0.3-0.6,0.5-0.9,0.6c-0.3,0.1-0.7,0.1-1,0.1h-1.6V5.1z M56.9,9.4h0.9c0.2,0,0.4,0,0.7-0.1
			C58.6,9.3,58.8,9.2,59,9c0.2-0.1,0.3-0.3,0.4-0.6c0.1-0.2,0.2-0.5,0.2-0.9c0-0.2,0-0.4-0.1-0.6c-0.1-0.2-0.2-0.4-0.3-0.6
			C59,6.2,58.8,6.1,58.6,6c-0.2-0.1-0.5-0.2-0.9-0.2h-0.9V9.4z"/>
		<path class="st1" d="M66.3,10.1l-0.6-1.5h-1.8l-0.6,1.5h-0.8l1.9-5h0.7l1.9,5H66.3z M65.5,8l-0.6-1.9h0L64.2,8H65.5z"/>
		<path class="st1" d="M68.2,10.1h-0.7v-5h1.4c0.3,0,0.6,0,0.8,0.1c0.2,0.1,0.4,0.2,0.6,0.3c0.1,0.1,0.3,0.3,0.3,0.5
			c0.1,0.2,0.1,0.4,0.1,0.6c0,0.2,0,0.4-0.1,0.6c-0.1,0.2-0.2,0.3-0.3,0.5C70.1,7.8,69.9,8,69.7,8c-0.2,0.1-0.5,0.1-0.8,0.1h-0.7
			V10.1z M68.2,7.5h0.7c0.2,0,0.4,0,0.5-0.1c0.1-0.1,0.2-0.1,0.3-0.2c0.1-0.1,0.1-0.2,0.2-0.3c0-0.1,0-0.2,0-0.3c0-0.1,0-0.2,0-0.3
			c0-0.1-0.1-0.2-0.2-0.3c-0.1-0.1-0.2-0.1-0.3-0.2c-0.1-0.1-0.3-0.1-0.5-0.1h-0.7V7.5z"/>
		<path class="st1" d="M71.9,10.1h-0.7v-5h1.4c0.3,0,0.6,0,0.8,0.1c0.2,0.1,0.4,0.2,0.6,0.3c0.1,0.1,0.3,0.3,0.3,0.5
			c0.1,0.2,0.1,0.4,0.1,0.6c0,0.2,0,0.4-0.1,0.6c-0.1,0.2-0.2,0.3-0.3,0.5C73.8,7.8,73.6,8,73.4,8c-0.2,0.1-0.5,0.1-0.8,0.1h-0.7
			V10.1z M71.9,7.5h0.7c0.2,0,0.4,0,0.5-0.1c0.1-0.1,0.2-0.1,0.3-0.2c0.1-0.1,0.1-0.2,0.2-0.3c0-0.1,0-0.2,0-0.3c0-0.1,0-0.2,0-0.3
			c0-0.1-0.1-0.2-0.2-0.3c-0.1-0.1-0.2-0.1-0.3-0.2c-0.1-0.1-0.3-0.1-0.5-0.1h-0.7V7.5z"/>
		<path class="st1" d="M81.8,7.6c0,0.3-0.1,0.7-0.2,1c-0.1,0.3-0.3,0.6-0.5,0.8c-0.2,0.2-0.5,0.4-0.8,0.6c-0.3,0.1-0.7,0.2-1,0.2
			c-0.4,0-0.7-0.1-1-0.2c-0.3-0.1-0.6-0.3-0.8-0.6c-0.2-0.2-0.4-0.5-0.5-0.8c-0.1-0.3-0.2-0.6-0.2-1c0-0.3,0.1-0.7,0.2-1
			c0.1-0.3,0.3-0.6,0.5-0.8c0.2-0.2,0.5-0.4,0.8-0.6C78.5,5.1,78.8,5,79.2,5c0.4,0,0.7,0.1,1,0.2c0.3,0.1,0.6,0.3,0.8,0.6
			c0.2,0.2,0.4,0.5,0.5,0.8C81.8,6.9,81.8,7.3,81.8,7.6z M81.1,7.6c0-0.2,0-0.4-0.1-0.7c-0.1-0.2-0.2-0.4-0.4-0.6
			C80.5,6.1,80.3,6,80,5.9c-0.2-0.1-0.5-0.2-0.8-0.2c-0.3,0-0.6,0.1-0.8,0.2C78.2,6,78,6.2,77.8,6.3c-0.2,0.2-0.3,0.4-0.3,0.6
			c-0.1,0.2-0.1,0.4-0.1,0.6c0,0.2,0,0.4,0.1,0.6c0.1,0.2,0.2,0.4,0.3,0.6c0.2,0.2,0.3,0.3,0.6,0.5c0.2,0.1,0.5,0.2,0.8,0.2
			c0.3,0,0.6-0.1,0.8-0.2c0.2-0.1,0.4-0.3,0.6-0.5c0.2-0.2,0.3-0.4,0.3-0.6C81.1,8,81.1,7.8,81.1,7.6z"/>
		<path class="st1" d="M85.7,10.1l-2.5-3.9h0v3.9h-0.7v-5h0.8l2.4,3.8h0V5.1h0.7v5H85.7z"/>
	</g>
</g>
<g id="Layer_4_copy">
	<path class="st2" d="M108.6,0.7c2.1,0,3.9,1.7,3.9,3.9v24.4c0,2.1-1.7,3.9-3.9,3.9H4.6c-2.1,0-3.9-1.7-3.9-3.9V4.6
		c0-2.1,1.7-3.9,3.9-3.9H108.6 M108.6,0H4.6C2.1,0,0,2.1,0,4.6v24.4c0,2.5,2.1,4.6,4.6,4.6h104c2.5,0,4.6-2.1,4.6-4.6V4.6
		C113.1,2.1,111.1,0,108.6,0L108.6,0z"/>
</g>
<g id="Layer_3">
	<path class="st0" d="M10.5,27.5c0.1,0,0.1-0.1,0.2-0.1l10.2-5.6l-2.4-2.4L10.5,27.5L10.5,27.5z M21.4,21.6l-2.5-2.5l2.5-2.6
		l3.5,1.9c0.9,0.5,0.4,1.1,0,1.3L21.4,21.6L21.4,21.6z M20.9,16.2l-10.2-5.6c-0.1-0.1-0.2-0.1-0.4-0.1l8.2,8.1L20.9,16.2L20.9,16.2z
		 M9.7,10.7l8.4,8.4l-8.4,8.5c-0.2-0.2-0.4-0.5-0.4-0.9c0-0.8-0.1-14-0.1-15C9.3,11.1,9.5,10.8,9.7,10.7z"/>
</g>
</svg>
