<?xml version="1.0" encoding="utf-8"?>
<!-- Generator: Adobe Illustrator 19.2.1, SVG Export Plug-In . SVG Version: 6.00 Build 0)  -->
<svg version="1.1" id="Capa_1" xmlns="http://www.w3.org/2000/svg" xmlns:xlink="http://www.w3.org/1999/xlink" x="0px" y="0px"
	 width="18.2px" height="18px" viewBox="0 0 18.2 18" style="enable-background:new 0 0 18.2 18;" xml:space="preserve">
<g>
	<path d="M18.2,9.1c0-2.4-0.9-4.7-2.7-6.4S11.5,0,9.1,0S4.4,0.9,2.7,2.7S0,6.7,0,9.1v4.3c0,2.4,2,4.4,4.4,4.4c0.3,0,0.5-0.2,0.5-0.5
		V9.5C4.9,9.2,4.7,9,4.4,9C3.1,9,1.9,9.6,1,10.5V9.1c0-4.4,3.6-8,8-8s8,3.6,8,8c0,0,0,0.1,0,0.1c0,0,0,0.1,0,0.1v1.5
		c-0.8-1-2-1.6-3.4-1.6c-0.3,0-0.5,0.2-0.5,0.5v7.8c0,0.3,0.2,0.5,0.5,0.5c2.4,0,4.4-2,4.4-4.4V9.3c0,0,0-0.1,0-0.1
		C18.2,9.2,18.2,9.1,18.2,9.1z M3.9,10.1v6.6C2.3,16.4,1,15.1,1,13.4C1,11.7,2.3,10.3,3.9,10.1z M14.3,16.9v-6.6
		c1.6,0.3,2.8,1.6,2.8,3.3C17.1,15.3,15.9,16.7,14.3,16.9z"/>
</g>
</svg>
