<?xml version="1.0" encoding="utf-8"?>
<!-- Generator: Adobe Illustrator 19.2.1, SVG Export Plug-In . SVG Version: 6.00 Build 0)  -->
<svg version="1.1" id="Capa_1" xmlns="http://www.w3.org/2000/svg" xmlns:xlink="http://www.w3.org/1999/xlink" x="0px" y="0px"
	 width="18px" height="18px" viewBox="0 0 18 18" style="enable-background:new 0 0 18 18;" xml:space="preserve">
<g>
	<path d="M9,0C4,0,0,4,0,9s4,9,9,9c5,0,9-4,9-9S14,0,9,0z M9,3.6c0.5,0,0.9,0.4,0.9,0.9S9.5,5.4,9,5.4C8.5,5.4,8.1,5,8.1,4.5
		C8.1,4,8.5,3.6,9,3.6z M9.9,13.1c0,0.6-0.4,1-0.9,1c-0.5,0-0.9-0.5-0.9-1V7.4c0-0.6,0.4-1,0.9-1c0.5,0,0.9,0.5,0.9,1V13.1z"/>
</g>
</svg>
