<?xml version="1.0" encoding="utf-8"?>
<!-- Generator: Adobe Illustrator 19.2.1, SVG Export Plug-In . SVG Version: 6.00 Build 0)  -->
<svg version="1.1" id="Capa_1" xmlns="http://www.w3.org/2000/svg" xmlns:xlink="http://www.w3.org/1999/xlink" x="0px" y="0px"
	 width="20.5px" height="18px" viewBox="0 0 20.5 18" style="enable-background:new 0 0 20.5 18;" xml:space="preserve">
<g>
	<path d="M18.8,1.7c-1.1-1.1-2.5-1.7-4-1.7s-2.9,0.6-4,1.7l-0.6,0.6L9.7,1.7C8.6,0.6,7.2,0,5.7,0c-1.5,0-2.9,0.6-4,1.7
		C0.6,2.7,0,4.2,0,5.7c0,1.5,0.6,2.9,1.7,4l8.2,8.2c0.1,0.1,0.3,0.2,0.4,0.2s0.3-0.1,0.4-0.2l8.2-8.1c1.1-1.1,1.7-2.5,1.7-4
		C20.5,4.2,19.9,2.7,18.8,1.7z"/>
</g>
</svg>
