<?xml version="1.0" encoding="utf-8"?>
<!-- Generator: Adobe Illustrator 19.2.1, SVG Export Plug-In . SVG Version: 6.00 Build 0)  -->
<svg version="1.1" id="Layer_1" xmlns="http://www.w3.org/2000/svg" xmlns:xlink="http://www.w3.org/1999/xlink" x="0px" y="0px"
	 width="26px" height="26px" viewBox="0 0 26 26" style="enable-background:new 0 0 26 26;" xml:space="preserve">
<g>
	<path d="M24.9,12.5V13c0,6.6-5.3,11.9-11.9,11.9c-3.1,0-6-1.2-8.2-3.3h3.3v-1.1H3.8c-0.3,0-0.5,0.2-0.5,0.5v4.3h1.1v-2.8
		C6.7,24.8,9.8,26,13,26c7.2,0,13-5.8,13-13v-0.5C26,12.5,24.9,12.5,24.9,12.5z"/>
	<path d="M13,1.1c3.1,0,6,1.2,8.2,3.3h-3.3v1.1h4.3c0.3,0,0.5-0.2,0.5-0.5V0.6h-1.1v2.8C19.3,1.2,16.2,0,13,0C5.8,0,0,5.8,0,13v0.5
		h1.1V13C1.1,6.4,6.4,1.1,13,1.1z"/>
	<path d="M15,8.4c-0.7,0-1.4,0.2-2,0.6c-0.6-0.4-1.3-0.6-2-0.6c-2.2,0-3.4,1.2-3.4,3.4c0,1.6,1.9,3.6,3,4.6c0.7,0.6,1.8,1.6,2.4,1.7
		c0,0,0,0,0,0c0,0,0,0,0,0c0,0,0,0,0,0c0.6-0.1,1.7-1,2.4-1.6c1.1-1,3-3,3-4.6C18.4,9.6,17.2,8.4,15,8.4z M13,17
		c-0.9-0.5-4.3-3.4-4.3-5.1c0-1.6,0.7-2.4,2.4-2.4c0.6,0,1.2,0.2,1.6,0.6c0.2,0.2,0.5,0.2,0.7,0c0.4-0.4,1-0.6,1.6-0.6
		c1.6,0,2.4,0.7,2.4,2.4C17.3,13.5,13.9,16.5,13,17z"/>
</g>
</svg>
