<?xml version="1.0" encoding="utf-8"?>
<!-- Generator: Adobe Illustrator 19.2.1, SVG Export Plug-In . SVG Version: 6.00 Build 0)  -->
<svg version="1.1" id="Layer_1" xmlns="http://www.w3.org/2000/svg" xmlns:xlink="http://www.w3.org/1999/xlink" x="0px" y="0px"
	 width="17px" height="13px" viewBox="0 0 17 13" style="enable-background:new 0 0 17 13;" xml:space="preserve">
<path d="M14.9,0H2.1C1,0,0,1,0,2.2v8.7C0,12,1,13,2.1,13h12.8c1.2,0,2.1-1,2.1-2.2V2.2C17,1,16,0,14.9,0z M14.4,1.4L8.5,6.3L2.6,1.4
	H14.4z M14.9,11.6H2.1c-0.4,0-0.7-0.3-0.7-0.7V2.3L8,7.8C8.1,7.9,8.3,8,8.4,8c0.2,0,0.3-0.1,0.4-0.2l6.6-5.5v8.5
	C15.6,11.2,15.3,11.6,14.9,11.6z"/>
</svg>
