<?xml version="1.0" encoding="utf-8"?>
<!-- Generator: Adobe Illustrator 19.2.1, SVG Export Plug-In . SVG Version: 6.00 Build 0)  -->
<svg version="1.1" id="Layer_1" xmlns="http://www.w3.org/2000/svg" xmlns:xlink="http://www.w3.org/1999/xlink" x="0px" y="0px"
	 width="13px" height="20px" viewBox="0 0 13 20" style="enable-background:new 0 0 13 20;" xml:space="preserve">
<g>
	<path d="M6.5,15.3c-0.4,0-0.8,0.4-0.8,0.8c0,0.4,0.4,0.8,0.8,0.8s0.8-0.4,0.8-0.8C7.3,15.7,7,15.3,6.5,15.3z"/>
	<path d="M10.6,0H2.4C1.1,0,0,1.1,0,2.4v15.3C0,18.9,1.1,20,2.4,20h8.3c1.3,0,2.4-1.1,2.4-2.4V2.4C13,1.1,11.9,0,10.6,0z M11.5,17.6
		L11.5,17.6c-0.1,0.4-0.5,0.8-0.9,0.8H2.4c-0.4,0-0.8-0.4-0.8-0.8V2.4C1.6,2,2,1.6,2.4,1.6h8.3c0.4,0,0.8,0.4,0.8,0.8V17.6z"/>
	<path d="M7.3,2.4H5.7c-0.4,0-0.8,0.4-0.8,0.8C4.9,3.6,5.3,4,5.7,4h1.6c0.4,0,0.8-0.4,0.8-0.8C8.1,2.8,7.7,2.4,7.3,2.4z"/>
</g>
</svg>
