<?xml version="1.0" encoding="utf-8"?>
<!-- Generator: Adobe Illustrator 19.2.1, SVG Export Plug-In . SVG Version: 6.00 Build 0)  -->
<svg version="1.1" id="Layer_1" xmlns="http://www.w3.org/2000/svg" xmlns:xlink="http://www.w3.org/1999/xlink" x="0px" y="0px"
	 width="12px" height="16px" viewBox="0 0 12 16" style="enable-background:new 0 0 12 16;" xml:space="preserve">
<g>
	<path d="M6,3.4C4.5,3.4,3.3,4.6,3.3,6c0,1.5,1.2,2.7,2.7,2.7S8.7,7.5,8.7,6C8.7,4.6,7.5,3.4,6,3.4z M6,7.4C5.3,7.4,4.7,6.8,4.7,6
		c0-0.7,0.6-1.3,1.3-1.3S7.3,5.3,7.3,6C7.3,6.8,6.7,7.4,6,7.4z"/>
	<path d="M6,0C2.7,0,0,2.7,0,6c0,5,5.3,9.6,5.6,9.8C5.7,15.9,5.8,16,6,16s0.3-0.1,0.4-0.2C6.7,15.6,12,11,12,6C12,2.7,9.3,0,6,0z
		 M6,14.4C4.8,13.2,1.3,9.6,1.3,6c0-2.6,2.1-4.7,4.7-4.7s4.7,2.1,4.7,4.7C10.7,9.6,7.2,13.2,6,14.4z"/>
</g>
</svg>
