<?xml version="1.0" encoding="utf-8"?>
<!-- Generator: Adobe Illustrator 19.2.1, SVG Export Plug-In . SVG Version: 6.00 Build 0)  -->
<svg version="1.1" id="Capa_1" xmlns="http://www.w3.org/2000/svg" xmlns:xlink="http://www.w3.org/1999/xlink" x="0px" y="0px"
	 width="15.9px" height="26px" viewBox="0 0 15.9 26" style="enable-background:new 0 0 15.9 26;" xml:space="preserve">
<style type="text/css">
	.st0{fill:#1E201D;}
</style>
<g>
	<path class="st0" d="M15.1,0.3c-0.2,0-0.4,0.1-0.6,0.3l-6.3,6l-6.4,6c-0.4,0.3-0.4,0.8-0.1,1.1l6.4,6l6.4,6c0.3,0.3,0.9,0.3,1.1,0
		c0.1-0.1,0.2-0.3,0.2-0.5V13.2V1.1C15.9,0.6,15.5,0.3,15.1,0.3z M14.3,13.2v10.3l-5-4.8l-5.7-5.5l5.7-5.5l5-4.8V13.2z"/>
	<path class="st0" d="M0.8,0C0.4,0,0,0.4,0,0.8v24.4C0,25.6,0.4,26,0.8,26c0.4,0,0.8-0.4,0.8-0.8V0.8C1.6,0.4,1.2,0,0.8,0z"/>
</g>
</svg>
