<?xml version="1.0" encoding="utf-8"?>
<!-- Generator: Adobe Illustrator 19.2.1, SVG Export Plug-In . SVG Version: 6.00 Build 0)  -->
<svg version="1.1" id="Capa_1" xmlns="http://www.w3.org/2000/svg" xmlns:xlink="http://www.w3.org/1999/xlink" x="0px" y="0px"
	 width="10.6px" height="26px" viewBox="0 0 10.6 26" style="enable-background:new 0 0 10.6 26;" xml:space="preserve">
<style type="text/css">
	.st0{fill:#1E201D;}
</style>
<path class="st0" d="M9.1,0.8C9.1,0.4,9.4,0,9.8,0c0.4,0,0.8,0.4,0.8,0.8v24.4c0,0.4-0.4,0.8-0.8,0.8c-0.4,0-0.8-0.4-0.8-0.8
	C9.1,25.2,9.1,0.8,9.1,0.8z M0,0.8C0,0.4,0.4,0,0.8,0s0.8,0.4,0.8,0.8v24.4c0,0.4-0.4,0.8-0.8,0.8S0,25.6,0,25.2V0.8z"/>
</svg>
