<?xml version="1.0" encoding="utf-8"?>
<!-- Generator: Adobe Illustrator 19.2.1, SVG Export Plug-In . SVG Version: 6.00 Build 0)  -->
<svg version="1.1" id="Capa_1" xmlns="http://www.w3.org/2000/svg" xmlns:xlink="http://www.w3.org/1999/xlink" x="0px" y="0px"
	 width="14.3px" height="25.7px" viewBox="0 0 14.3 25.7" style="enable-background:new 0 0 14.3 25.7;" xml:space="preserve">
<style type="text/css">
	.st0{fill:#1E201D;}
</style>
<g>
	<path class="st0" d="M0,0.8l0,12.1L0,25c0,0.2,0.1,0.4,0.2,0.5c0.3,0.3,0.9,0.3,1.1,0l6.4-6l6.4-6c0.3-0.4,0.3-0.9-0.1-1.1l-6.4-6
		l-6.3-6C1.2,0.1,1,0,0.8,0C0.4,0,0,0.4,0,0.8z M1.6,2.6l5,4.8l5.7,5.5l-5.7,5.5l-5,4.8V12.9V2.6z"/>
</g>
</svg>
