<?xml version="1.0" encoding="utf-8"?>
<!-- Generator: Adobe Illustrator 19.2.1, SVG Export Plug-In . SVG Version: 6.00 Build 0)  -->
<svg version="1.1" id="Capa_1" xmlns="http://www.w3.org/2000/svg" xmlns:xlink="http://www.w3.org/1999/xlink" x="0px" y="0px"
	 width="23.5px" height="26px" viewBox="0 0 23.5 26" style="enable-background:new 0 0 23.5 26;" xml:space="preserve">
<style type="text/css">
	.st0{fill:#1E201D;}
</style>
<path class="st0" d="M20,5.7c-2.2-2.1-5.1-3.5-8.4-3.5c-0.6,0-1.3,0.1-1.9,0.2C9.2,2.5,8.9,2.6,8.5,2.7L9.2,1c0.2-0.4,0-0.8-0.3-0.9
	C8.6-0.1,8.2,0,8.1,0.4l-1.3,3C6.6,3.7,6.7,4,6.9,4.2l2.6,2.1c0.3,0.2,0.7,0.2,0.9-0.1c0.2-0.3,0.2-0.7-0.1-0.9L8.8,4
	c0.4-0.1,0.8-0.2,1.2-0.2c0.6-0.1,1.2-0.2,1.8-0.2c2.9,0,5.5,1.2,7.4,3.1c1.9,1.9,3.1,4.5,3.1,7.5s-1.2,5.6-3.1,7.5
	c-1.9,1.9-4.5,3.1-7.5,3.1c-2.5,0-4.9-0.9-6.7-2.4c-1.9-1.5-3.2-3.7-3.6-6.2c-0.1-0.4-0.4-0.6-0.8-0.5C0.2,15.6,0,16,0,16.3
	c0.5,2.8,2,5.2,4.1,6.9S8.8,26,11.6,26c3.3,0,6.2-1.3,8.4-3.5c2.1-2.2,3.5-5.1,3.5-8.4C23.5,10.8,22.2,7.9,20,5.7z"/>
</svg>
