<?xml version="1.0" encoding="utf-8"?>
<!-- Generator: Adobe Illustrator 19.2.1, SVG Export Plug-In . SVG Version: 6.00 Build 0)  -->
<svg version="1.1" id="Capa_1" xmlns="http://www.w3.org/2000/svg" xmlns:xlink="http://www.w3.org/1999/xlink" x="0px" y="0px"
	 width="15.9px" height="26px" viewBox="0 0 15.9 26" style="enable-background:new 0 0 15.9 26;" xml:space="preserve">
<style type="text/css">
	.st0{fill:#1E201D;}
</style>
<g>
	<path class="st0" d="M7.7,6.6l-6.3-6C1.2,0.4,1,0.3,0.8,0.3C0.4,0.3,0,0.6,0,1.1v12.1v12.1c0,0.2,0.1,0.4,0.2,0.5
		c0.3,0.3,0.9,0.3,1.1,0l6.4-6l6.4-6c0.3-0.4,0.3-0.9-0.1-1.1L7.7,6.6z M6.6,18.6l-5,4.8V13.2V2.9l5,4.8l5.7,5.5L6.6,18.6z"/>
	<path class="st0" d="M15.1,0c-0.4,0-0.8,0.4-0.8,0.8v24.4c0,0.4,0.4,0.8,0.8,0.8c0.4,0,0.8-0.4,0.8-0.8V0.8C15.9,0.4,15.5,0,15.1,0
		z"/>
</g>
</svg>
