<?xml version="1.0" encoding="utf-8"?>
<!-- Generator: Adobe Illustrator 19.2.1, SVG Export Plug-In . SVG Version: 6.00 Build 0)  -->
<svg version="1.1" id="Capa_1" xmlns="http://www.w3.org/2000/svg" xmlns:xlink="http://www.w3.org/1999/xlink" x="0px" y="0px"
	 width="28.9px" height="26px" viewBox="0 0 28.9 26" style="enable-background:new 0 0 28.9 26;" xml:space="preserve">
<g>
	<path d="M16.1,0.2c-0.6-0.3-1.2-0.3-1.8,0l-0.1,0.1L6.6,6.8h-6C0.2,6.8,0,7,0,7.4v10.8c0,0.2,0.1,0.3,0.2,0.4
		c0.1,0.1,0.2,0.2,0.4,0.2h6l7.6,7c0,0,0.1,0.1,0.1,0.1c0.3,0.2,0.6,0.2,0.9,0.2c0.3,0,0.6-0.1,0.8-0.2c0.6-0.3,0.9-0.9,0.9-1.6V1.8
		C17,1.1,16.6,0.6,16.1,0.2z M6.2,15.3v0.6v1.7H1.1V7.9h5.1V15.3z M15.9,24.2c0,0.2-0.1,0.5-0.3,0.6c-0.1,0.1-0.3,0.2-0.6,0
		l-7.6-6.9v-2v-0.6V7.7l7.6-6.5c0.3-0.1,0.5-0.1,0.6,0c0.2,0.1,0.3,0.3,0.3,0.6V24.2z"/>
	<path d="M21.1,7.8c-0.2-0.2-0.5-0.2-0.7,0c-0.2,0.2-0.2,0.5,0,0.7c1,1.1,1.6,2.6,1.6,4.2c0,1.5-0.5,2.9-1.5,4
		c-0.2,0.2-0.2,0.5,0.1,0.7c0.1,0.1,0.2,0.1,0.3,0.1c0.1,0,0.3-0.1,0.4-0.2c1.1-1.3,1.7-2.9,1.7-4.6C23,10.9,22.3,9.2,21.1,7.8z"/>
	<path d="M22.1,2.5c-0.3-0.1-0.5,0-0.7,0.3c-0.1,0.3,0,0.5,0.3,0.7c3.7,1.6,6.1,5.2,6.1,9.2c0,4-2.4,7.6-6.1,9.2
		c-0.3,0.1-0.4,0.4-0.3,0.7c0.1,0.2,0.3,0.3,0.5,0.3c0.1,0,0.1,0,0.2,0c4-1.7,6.7-5.7,6.7-10.1C28.9,8.3,26.2,4.3,22.1,2.5z"/>
</g>
</svg>
