<?xml version="1.0" encoding="utf-8"?>
<!-- Generator: Adobe Illustrator 19.2.1, SVG Export Plug-In . SVG Version: 6.00 Build 0)  -->
<svg version="1.1" id="Layer_1" xmlns="http://www.w3.org/2000/svg" xmlns:xlink="http://www.w3.org/1999/xlink" x="0px" y="0px"
	 width="15px" height="10px" viewBox="0 0 15 10" style="enable-background:new 0 0 15 10;" xml:space="preserve">
<style type="text/css">
	.st0{fill-rule:evenodd;clip-rule:evenodd;}
</style>
<path class="st0" d="M4.8,4v2c0,0,1.8,0,2.6,0c-0.4,1.3-1,2-2.6,2C3.2,8,2,6.6,2,5c0-1.6,1.2-3,2.8-3c0.8,0,1.4,0.3,1.8,0.7
	C7,2.3,7,2.3,8,1.3C7.1,0.5,6,0,4.8,0C2.1,0,0,2.2,0,5c0,2.8,2.1,5,4.8,5c3.9,0,4.9-3.6,4.6-6C8.4,4,4.8,4,4.8,4z M13.3,4.1V2.4
	h-1.2v1.7h-1.7v1.2h1.7v1.8h1.2V5.3H15V4.1H13.3z"/>
</svg>
