<?xml version="1.0" encoding="utf-8"?>
<!-- Generator: Adobe Illustrator 19.2.1, SVG Export Plug-In . SVG Version: 6.00 Build 0)  -->
<svg version="1.1" id="Layer_1" xmlns="http://www.w3.org/2000/svg" xmlns:xlink="http://www.w3.org/1999/xlink" x="0px" y="0px"
	 width="12px" height="12px" viewBox="0 0 12 12" style="enable-background:new 0 0 12 12;" xml:space="preserve">
<g>
	<path d="M9,12H3c-1.6,0-3-1.3-3-3V3c0-1.6,1.3-3,3-3H9c1.6,0,3,1.3,3,3V9C12,10.7,10.7,12,9,12z M3,1.2C2,1.2,1.2,2,1.2,3V9
		c0,1,0.8,1.7,1.7,1.7H9c1,0,1.7-0.8,1.7-1.7V3c0-1-0.8-1.7-1.7-1.7H3z"/>
</g>
<g>
	<path d="M6,9.1C4.3,9.1,2.9,7.7,2.9,6S4.3,2.9,6,2.9S9.1,4.3,9.1,6S7.7,9.1,6,9.1z M6,4.2C5,4.2,4.2,5,4.2,6C4.2,7,5,7.8,6,7.8
		C7,7.8,7.8,7,7.8,6C7.8,5,7,4.2,6,4.2z"/>
</g>
<g>
	<circle cx="9.3" cy="2.6" r="0.7"/>
</g>
</svg>
