<?xml version="1.0" encoding="utf-8"?>
<!-- Generator: Adobe Illustrator 19.2.1, SVG Export Plug-In . SVG Version: 6.00 Build 0)  -->
<svg version="1.1" id="Capa_1" xmlns="http://www.w3.org/2000/svg" xmlns:xlink="http://www.w3.org/1999/xlink" x="0px" y="0px"
	 width="12px" height="11.5px" viewBox="0 0 12 11.5" style="enable-background:new 0 0 12 11.5;" xml:space="preserve">
<g>
	<path d="M2.2,11.5c0.2-0.5,0.3-1,0.5-1.5C3,9,3.3,8.1,3.6,7.2c0-0.1,0-0.2-0.1-0.2C2.4,6.1,1.3,5.3,0.1,4.5c0,0-0.1,0-0.1-0.1
		c0.1,0,0.2,0,0.3,0c1.4,0,2.7,0,4.1,0c0.1,0,0.2,0,0.2-0.2C5,2.9,5.5,1.5,5.9,0.1c0,0,0-0.1,0-0.1c0,0.1,0,0.1,0,0.1
		c0.5,1.4,0.9,2.7,1.3,4.1c0,0.1,0.1,0.2,0.2,0.2c1.4,0,2.8,0,4.2,0c0,0,0.1,0,0.2,0c-0.1,0-0.1,0.1-0.1,0.1C10.7,5.3,9.6,6.2,8.4,7
		C8.3,7.1,8.3,7.1,8.3,7.3c0.4,1.3,0.9,2.7,1.3,4c0,0,0,0.1,0,0.1c-0.1,0-0.1-0.1-0.2-0.1c-1.1-0.8-2.3-1.7-3.4-2.5
		C6,8.8,6,8.8,5.8,8.9C4.7,9.7,3.5,10.6,2.2,11.5C2.3,11.4,2.3,11.4,2.2,11.5z"/>
</g>
</svg>
