<?xml version="1.0" encoding="utf-8"?>
<!-- Generator: Adobe Illustrator 19.2.1, SVG Export Plug-In . SVG Version: 6.00 Build 0)  -->
<svg version="1.1" id="Layer_1" xmlns="http://www.w3.org/2000/svg" xmlns:xlink="http://www.w3.org/1999/xlink" x="0px" y="0px"
	 width="13.5px" height="16px" viewBox="0 0 13.5 16" style="enable-background:new 0 0 13.5 16;" xml:space="preserve">
<style type="text/css">
	.st0{fill:#1D1D1B;}
</style>
<g>
	<path class="st0" d="M8.2,10.4c-0.1,0-0.3,0.1-0.4,0.2v2.8c0.1,0.1,0.3,0.2,0.4,0.2c0.2,0,0.3-0.2,0.3-0.6V11
		C8.5,10.6,8.4,10.4,8.2,10.4z"/>
	<path class="st0" d="M11.5,11c0-0.4-0.1-0.6-0.4-0.6c-0.3,0-0.4,0.2-0.4,0.6v0.4h0.8V11z"/>
	<path class="st0" d="M13.4,8.6c0,0-0.1-0.9-0.5-1.3c-0.5-0.5-1.1-0.5-1.3-0.6C9.6,6.6,6.7,6.6,6.7,6.6S3.9,6.6,2,6.7
		c-0.3,0-0.9,0-1.4,0.6C0.3,7.7,0.2,8.6,0.2,8.6S0,9.7,0,10.8v1C0,12.9,0.1,14,0.1,14s0.1,0.9,0.5,1.3c0.5,0.5,1.2,0.5,1.5,0.6
		C3.2,16,6.7,16,6.7,16s2.8,0,4.7-0.1c0.3,0,0.8,0,1.3-0.6c0.4-0.4,0.5-1.3,0.5-1.3s0.1-1.1,0.1-2.2v-1C13.5,9.7,13.4,8.6,13.4,8.6z
		 M3,14.2H2.1V9h-1V8.2h2.8V9H3V14.2z M6.2,14.2H5.4v-0.5c-0.3,0.4-0.6,0.5-0.9,0.5c-0.3,0-0.5-0.1-0.5-0.3c0-0.1-0.1-0.4-0.1-0.7
		V9.7h0.8V13c0,0.2,0,0.3,0,0.3c0,0.1,0.1,0.2,0.2,0.2c0.2,0,0.3-0.1,0.5-0.4V9.7h0.8L6.2,14.2z M9.3,12.9c0,0.4,0,0.7-0.1,0.9
		c-0.1,0.3-0.3,0.5-0.6,0.5c-0.3,0-0.6-0.1-0.9-0.5v0.4H6.9v-6h0.8v2C8,9.8,8.3,9.6,8.6,9.6c0.3,0,0.5,0.2,0.6,0.5
		c0,0.2,0.1,0.5,0.1,0.9C9.3,11.1,9.3,12.9,9.3,12.9z M12.4,12.7c0,0.3,0,0.5,0,0.5c0,0.2-0.1,0.3-0.2,0.5c-0.2,0.3-0.6,0.5-1,0.5
		s-0.8-0.2-1-0.5c-0.2-0.2-0.3-0.6-0.3-1.1v-1.6c0-0.5,0.1-0.8,0.3-1.1c0.2-0.3,0.5-0.4,1-0.4c0.4,0,0.7,0.1,1,0.4
		c0.2,0.2,0.3,0.6,0.3,1.1l0,0.9h-1.6v0.8c0,0.4,0.1,0.6,0.4,0.6c0.2,0,0.3-0.1,0.4-0.3c0,0,0-0.2,0-0.5L12.4,12.7L12.4,12.7z"/>
	<path class="st0" d="M3.7,3.6v2.5l0.9,0V3.7L5.7,0H4.8L4.2,2.4L3.5,0h-1c0.2,0.6,0.4,1.1,0.6,1.7C3.4,2.6,3.6,3.2,3.7,3.6z"/>
	<path class="st0" d="M5.5,4.7c0,0.5,0.1,0.8,0.3,1.1C6,6,6.3,6.2,6.7,6.2s0.7-0.2,1-0.5C7.9,5.5,8,5.1,8,4.6V3
		c0-0.5-0.1-0.8-0.3-1.1c-0.3-0.3-0.6-0.5-1-0.5C6.3,1.5,6,1.7,5.8,2C5.6,2.2,5.5,2.6,5.5,3.1V4.7z M6.4,2.9c0-0.4,0.1-0.6,0.4-0.6
		c0.3,0,0.4,0.2,0.4,0.6v1.9c0,0.4-0.1,0.6-0.4,0.6c-0.3,0-0.4-0.2-0.4-0.6V2.9z"/>
	<path class="st0" d="M9.2,6.2c0.3,0,0.6-0.2,1-0.6v0.5H11V1.6h-0.8V5C10,5.3,9.8,5.4,9.6,5.4c-0.1,0-0.2-0.1-0.2-0.2
		c0,0,0-0.1,0-0.3V1.6H8.6v3.6c0,0.3,0,0.5,0.1,0.7C8.7,6.1,8.9,6.2,9.2,6.2z"/>
</g>
</svg>
