<?xml version="1.0" encoding="utf-8"?>
<!-- Generator: Adobe Illustrator 19.2.1, SVG Export Plug-In . SVG Version: 6.00 Build 0)  -->
<svg version="1.1" id="Layer_1" xmlns="http://www.w3.org/2000/svg" xmlns:xlink="http://www.w3.org/1999/xlink" x="0px" y="0px"
	 width="16px" height="9.6px" viewBox="0 0 16 9.6" style="enable-background:new 0 0 16 9.6;" xml:space="preserve">
<g>
	<circle cx="2.3" cy="3.9" r="2.1"/>
	<path d="M2.2,6.5C1,6.5,0,7.6,0,8.8v0.6c0,0.1,0.1,0.2,0.2,0.2h4c0.1,0,0.2-0.1,0.2-0.2V8.8C4.5,7.5,3.5,6.5,2.2,6.5z"/>
	<circle cx="7.5" cy="3.5" r="2.2"/>
	<path d="M7.5,6.3C6.1,6.3,5,7.4,5,8.8v0.6c0,0.1,0.1,0.2,0.2,0.2h4.4c0.1,0,0.2-0.1,0.2-0.2V8.7C9.9,7.4,8.8,6.2,7.5,6.3z"/>
	<circle cx="13.2" cy="2.6" r="2.6"/>
	<path d="M13.2,5.8c-1.6,0-2.8,1.3-2.8,2.8v0.8c0,0.1,0.1,0.2,0.2,0.2h5.1c0.1,0,0.2-0.1,0.2-0.2V8.6C16,7,14.7,5.8,13.2,5.8z"/>
</g>
</svg>
