<?xml version="1.0" encoding="utf-8"?>
<!-- Generator: Adobe Illustrator 19.2.1, SVG Export Plug-In . SVG Version: 6.00 Build 0)  -->
<svg version="1.1" id="Layer_1" xmlns="http://www.w3.org/2000/svg" xmlns:xlink="http://www.w3.org/1999/xlink" x="0px" y="0px"
	 width="16px" height="7.2px" viewBox="0 0 16 7.2" style="enable-background:new 0 0 16 7.2;" xml:space="preserve">
<g>
	<path d="M0.8,4.5C0.4,4.5,0,4.9,0,5.3v1.1c0,0.4,0.4,0.8,0.8,0.8c0.4,0,0.8-0.4,0.8-0.8V5.3C1.6,4.9,1.2,4.5,0.8,4.5z"/>
	<path d="M2.9,3.5c-0.4,0-0.8,0.4-0.8,0.8v2.1c0,0.4,0.4,0.8,0.8,0.8s0.8-0.4,0.8-0.8V4.3C3.7,3.8,3.4,3.5,2.9,3.5z"/>
	<path d="M5.1,2.4c-0.4,0-0.8,0.4-0.8,0.8v3.2c0,0.4,0.4,0.8,0.8,0.8c0.4,0,0.8-0.4,0.8-0.8V3.2C5.9,2.8,5.5,2.4,5.1,2.4z"/>
	<path d="M7.2,1.3c-0.4,0-0.8,0.4-0.8,0.9v4c0,0.5,0.4,0.9,0.8,0.9S8,6.8,8,6.3v-4C8,1.8,7.6,1.3,7.2,1.3z"/>
	<path d="M13.9,2.9c-0.1,0-0.3,0-0.4,0c-0.5-1.7-2-3-3.9-3C9.3,0,9,0,8.7,0.1l-0.2,0v7.1h5.3c1.2,0,2.1-1,2.1-2.1
		C16,3.9,15,2.9,13.9,2.9z"/>
</g>
</svg>
